<mxfile host="65bd71144e">
    <diagram id="QFf-q6ce1ClGtKq7H7N5" name="Layers">
        <mxGraphModel dx="2014" dy="782" grid="0" gridSize="10" guides="1" tooltips="1" connect="1" arrows="1" fold="1" page="1" pageScale="1" pageWidth="1169" pageHeight="827" math="0" shadow="0">
            <root>
                <mxCell id="0"/>
                <mxCell id="1" parent="0"/>
                <mxCell id="17" value="reference" style="edgeStyle=orthogonalEdgeStyle;html=1;entryX=0.017;entryY=0.4;entryDx=0;entryDy=0;entryPerimeter=0;" parent="1" source="2" target="10" edge="1">
                    <mxGeometry x="-0.5276" relative="1" as="geometry">
                        <Array as="points">
                            <mxPoint x="114" y="203"/>
                        </Array>
                        <mxPoint as="offset"/>
                    </mxGeometry>
                </mxCell>
                <mxCell id="2" value="Presentation" style="rounded=1;whiteSpace=wrap;html=1;horizontal=1;verticalAlign=top;" parent="1" vertex="1">
                    <mxGeometry x="54" y="35" width="120" height="60" as="geometry"/>
                </mxCell>
                <mxCell id="16" value="http request" style="edgeStyle=none;html=1;" parent="1" source="3" target="5" edge="1">
                    <mxGeometry relative="1" as="geometry"/>
                </mxCell>
                <mxCell id="3" value="Blazor WASM" style="text;html=1;strokeColor=none;fillColor=none;align=center;verticalAlign=middle;whiteSpace=wrap;rounded=0;" parent="1" vertex="1">
                    <mxGeometry x="56" y="64" width="110" height="20" as="geometry"/>
                </mxCell>
                <mxCell id="19" value="reference" style="edgeStyle=orthogonalEdgeStyle;html=1;entryX=1;entryY=0.25;entryDx=0;entryDy=0;" parent="1" source="4" target="10" edge="1">
                    <mxGeometry x="-0.291" relative="1" as="geometry">
                        <Array as="points">
                            <mxPoint x="396" y="194"/>
                        </Array>
                        <mxPoint as="offset"/>
                    </mxGeometry>
                </mxCell>
                <mxCell id="23" value="reference" style="edgeStyle=orthogonalEdgeStyle;html=1;entryX=0.5;entryY=0;entryDx=0;entryDy=0;" parent="1" source="4" target="8" edge="1">
                    <mxGeometry x="0.2233" relative="1" as="geometry">
                        <mxPoint as="offset"/>
                    </mxGeometry>
                </mxCell>
                <mxCell id="4" value="Server" style="rounded=1;whiteSpace=wrap;html=1;horizontal=1;verticalAlign=top;" parent="1" vertex="1">
                    <mxGeometry x="330" y="35" width="120" height="60" as="geometry"/>
                </mxCell>
                <mxCell id="5" value="API Azure Functions" style="text;html=1;strokeColor=none;fillColor=none;align=center;verticalAlign=middle;whiteSpace=wrap;rounded=0;" parent="1" vertex="1">
                    <mxGeometry x="332" y="64" width="110" height="20" as="geometry"/>
                </mxCell>
                <mxCell id="20" value="reference" style="edgeStyle=orthogonalEdgeStyle;html=1;entryX=0.5;entryY=1;entryDx=0;entryDy=0;" parent="1" source="6" target="10" edge="1">
                    <mxGeometry relative="1" as="geometry"/>
                </mxCell>
                <mxCell id="6" value="Infraestructure" style="rounded=0;whiteSpace=wrap;html=1;verticalAlign=top;" parent="1" vertex="1">
                    <mxGeometry x="186" y="293" width="120" height="60" as="geometry"/>
                </mxCell>
                <mxCell id="7" value="Library" style="text;html=1;strokeColor=none;fillColor=none;align=center;verticalAlign=middle;whiteSpace=wrap;rounded=0;" parent="1" vertex="1">
                    <mxGeometry x="191" y="324" width="110" height="20" as="geometry"/>
                </mxCell>
                <mxCell id="25" value="reference" style="html=1;entryX=1;entryY=0.75;entryDx=0;entryDy=0;" parent="1" target="10" edge="1">
                    <mxGeometry relative="1" as="geometry">
                        <mxPoint x="488" y="222" as="sourcePoint"/>
                        <mxPoint x="310" y="222" as="targetPoint"/>
                    </mxGeometry>
                </mxCell>
                <mxCell id="8" value="Domain" style="shape=hexagon;perimeter=hexagonPerimeter2;whiteSpace=wrap;html=1;fixedSize=1;verticalAlign=top;" parent="1" vertex="1">
                    <mxGeometry x="488" y="186" width="120" height="80" as="geometry"/>
                </mxCell>
                <mxCell id="9" value="Library" style="text;html=1;strokeColor=none;fillColor=none;align=center;verticalAlign=middle;whiteSpace=wrap;rounded=0;" parent="1" vertex="1">
                    <mxGeometry x="502" y="226" width="92" height="20" as="geometry"/>
                </mxCell>
                <mxCell id="10" value="Models" style="rounded=0;whiteSpace=wrap;html=1;verticalAlign=top;" parent="1" vertex="1">
                    <mxGeometry x="186" y="179" width="120" height="60" as="geometry"/>
                </mxCell>
                <mxCell id="11" value="Library" style="text;html=1;strokeColor=none;fillColor=none;align=center;verticalAlign=middle;whiteSpace=wrap;rounded=0;" parent="1" vertex="1">
                    <mxGeometry x="191" y="210" width="110" height="20" as="geometry"/>
                </mxCell>
                <mxCell id="21" value="reference" style="edgeStyle=orthogonalEdgeStyle;html=1;entryX=0.5;entryY=1;entryDx=0;entryDy=0;" parent="1" source="12" target="6" edge="1">
                    <mxGeometry relative="1" as="geometry"/>
                </mxCell>
                <mxCell id="12" value="Service" style="rounded=1;whiteSpace=wrap;html=1;horizontal=1;verticalAlign=top;" parent="1" vertex="1">
                    <mxGeometry x="186" y="424" width="120" height="60" as="geometry"/>
                </mxCell>
                <mxCell id="13" value="Worker Service" style="text;html=1;strokeColor=none;fillColor=none;align=center;verticalAlign=middle;whiteSpace=wrap;rounded=0;" parent="1" vertex="1">
                    <mxGeometry x="188" y="453" width="110" height="20" as="geometry"/>
                </mxCell>
                <mxCell id="22" value="reference" style="edgeStyle=orthogonalEdgeStyle;html=1;entryX=1;entryY=0.5;entryDx=0;entryDy=0;" parent="1" source="14" target="8" edge="1">
                    <mxGeometry relative="1" as="geometry"/>
                </mxCell>
                <mxCell id="14" value="Test" style="rounded=1;whiteSpace=wrap;html=1;horizontal=1;verticalAlign=top;" parent="1" vertex="1">
                    <mxGeometry x="715" y="196" width="120" height="60" as="geometry"/>
                </mxCell>
                <mxCell id="15" value="xunit" style="text;html=1;strokeColor=none;fillColor=none;align=center;verticalAlign=middle;whiteSpace=wrap;rounded=0;" parent="1" vertex="1">
                    <mxGeometry x="717" y="225" width="110" height="20" as="geometry"/>
                </mxCell>
                <mxCell id="TH3s8FQekaoLcTqqQEjN-26" value="" style="rounded=0;whiteSpace=wrap;html=1;verticalAlign=top;" parent="1" vertex="1">
                    <mxGeometry x="821" y="372" width="266" height="296" as="geometry"/>
                </mxCell>
                <mxCell id="TH3s8FQekaoLcTqqQEjN-27" value="Azure" style="text;html=1;strokeColor=none;fillColor=none;align=center;verticalAlign=middle;whiteSpace=wrap;rounded=0;" parent="1" vertex="1">
                    <mxGeometry x="821" y="344" width="40" height="20" as="geometry"/>
                </mxCell>
                <mxCell id="TH3s8FQekaoLcTqqQEjN-28" value="CosmosDB" style="shape=cylinder3;whiteSpace=wrap;html=1;boundedLbl=1;backgroundOutline=1;size=15;verticalAlign=top;" parent="1" vertex="1">
                    <mxGeometry x="844" y="573" width="77" height="76" as="geometry"/>
                </mxCell>
                <mxCell id="TH3s8FQekaoLcTqqQEjN-29" value="Key Vault" style="shape=cube;whiteSpace=wrap;html=1;boundedLbl=1;backgroundOutline=1;darkOpacity=0.05;darkOpacity2=0.1;verticalAlign=middle;" parent="1" vertex="1">
                    <mxGeometry x="973" y="577" width="99" height="68" as="geometry"/>
                </mxCell>
                <mxCell id="TH3s8FQekaoLcTqqQEjN-33" style="edgeStyle=orthogonalEdgeStyle;html=1;" parent="1" source="TH3s8FQekaoLcTqqQEjN-32" target="TH3s8FQekaoLcTqqQEjN-29" edge="1">
                    <mxGeometry relative="1" as="geometry">
                        <Array as="points">
                            <mxPoint x="883" y="520"/>
                            <mxPoint x="1023" y="520"/>
                        </Array>
                    </mxGeometry>
                </mxCell>
                <mxCell id="TH3s8FQekaoLcTqqQEjN-34" style="edgeStyle=orthogonalEdgeStyle;html=1;" parent="1" source="TH3s8FQekaoLcTqqQEjN-32" target="TH3s8FQekaoLcTqqQEjN-28" edge="1">
                    <mxGeometry relative="1" as="geometry"/>
                </mxCell>
                <mxCell id="TH3s8FQekaoLcTqqQEjN-41" style="edgeStyle=orthogonalEdgeStyle;html=1;" parent="1" source="TH3s8FQekaoLcTqqQEjN-32" target="TH3s8FQekaoLcTqqQEjN-39" edge="1">
                    <mxGeometry relative="1" as="geometry"/>
                </mxCell>
                <mxCell id="TH3s8FQekaoLcTqqQEjN-32" value="Static Web App" style="ellipse;whiteSpace=wrap;html=1;aspect=fixed;verticalAlign=middle;" parent="1" vertex="1">
                    <mxGeometry x="842.5" y="393" width="80" height="80" as="geometry"/>
                </mxCell>
                <mxCell id="TH3s8FQekaoLcTqqQEjN-36" value="workflows" style="edgeStyle=orthogonalEdgeStyle;html=1;entryX=-0.008;entryY=0.111;entryDx=0;entryDy=0;entryPerimeter=0;" parent="1" source="TH3s8FQekaoLcTqqQEjN-35" target="TH3s8FQekaoLcTqqQEjN-26" edge="1">
                    <mxGeometry x="0.018" y="9" relative="1" as="geometry">
                        <mxPoint as="offset"/>
                    </mxGeometry>
                </mxCell>
                <mxCell id="TH3s8FQekaoLcTqqQEjN-35" value="GitHub&lt;br&gt;Actions" style="rhombus;whiteSpace=wrap;html=1;verticalAlign=middle;" parent="1" vertex="1">
                    <mxGeometry x="562" y="359" width="105" height="93" as="geometry"/>
                </mxCell>
                <mxCell id="TH3s8FQekaoLcTqqQEjN-39" value="" style="shape=or;whiteSpace=wrap;html=1;verticalAlign=middle;" parent="1" vertex="1">
                    <mxGeometry x="954" y="412" width="37" height="42" as="geometry"/>
                </mxCell>
                <mxCell id="TH3s8FQekaoLcTqqQEjN-40" value="Functions" style="text;html=1;strokeColor=none;fillColor=none;align=center;verticalAlign=middle;whiteSpace=wrap;rounded=0;" parent="1" vertex="1">
                    <mxGeometry x="1000" y="423" width="40" height="20" as="geometry"/>
                </mxCell>
            </root>
        </mxGraphModel>
    </diagram>
    <diagram id="N9M0IbdWMcs29FIqDlpg" name="Pipelines">
        <mxGraphModel dx="1374" dy="782" grid="0" gridSize="10" guides="1" tooltips="1" connect="1" arrows="1" fold="1" page="1" pageScale="1" pageWidth="1169" pageHeight="827" math="0" shadow="0">
            <root>
                <mxCell id="bxSMeSngFyrTGHN01Dfs-0"/>
                <mxCell id="bxSMeSngFyrTGHN01Dfs-1" parent="bxSMeSngFyrTGHN01Dfs-0"/>
                <mxCell id="zw1c4lDCyKDmdPqllFDC-46" value="push" style="html=1;entryX=0;entryY=0.5;entryDx=0;entryDy=0;" parent="bxSMeSngFyrTGHN01Dfs-1" source="zw1c4lDCyKDmdPqllFDC-0" target="zw1c4lDCyKDmdPqllFDC-44" edge="1">
                    <mxGeometry relative="1" as="geometry"/>
                </mxCell>
                <mxCell id="zw1c4lDCyKDmdPqllFDC-48" value="open" style="edgeStyle=none;html=1;entryX=0.5;entryY=0;entryDx=0;entryDy=0;" parent="bxSMeSngFyrTGHN01Dfs-1" source="zw1c4lDCyKDmdPqllFDC-0" target="zw1c4lDCyKDmdPqllFDC-24" edge="1">
                    <mxGeometry relative="1" as="geometry"/>
                </mxCell>
                <mxCell id="zw1c4lDCyKDmdPqllFDC-0" value="staging" style="rounded=1;whiteSpace=wrap;html=1;" parent="bxSMeSngFyrTGHN01Dfs-1" vertex="1">
                    <mxGeometry x="431" y="170" width="120" height="60" as="geometry"/>
                </mxCell>
                <mxCell id="zw1c4lDCyKDmdPqllFDC-56" value="push" style="edgeStyle=orthogonalEdgeStyle;html=1;" parent="bxSMeSngFyrTGHN01Dfs-1" source="zw1c4lDCyKDmdPqllFDC-1" target="zw1c4lDCyKDmdPqllFDC-50" edge="1">
                    <mxGeometry relative="1" as="geometry"/>
                </mxCell>
                <mxCell id="zw1c4lDCyKDmdPqllFDC-1" value="main" style="rounded=1;whiteSpace=wrap;html=1;" parent="bxSMeSngFyrTGHN01Dfs-1" vertex="1">
                    <mxGeometry x="433" y="411" width="120" height="60" as="geometry"/>
                </mxCell>
                <mxCell id="zw1c4lDCyKDmdPqllFDC-14" value="push" style="edgeStyle=none;html=1;" parent="bxSMeSngFyrTGHN01Dfs-1" source="zw1c4lDCyKDmdPqllFDC-3" target="zw1c4lDCyKDmdPqllFDC-8" edge="1">
                    <mxGeometry relative="1" as="geometry"/>
                </mxCell>
                <mxCell id="zw1c4lDCyKDmdPqllFDC-38" value="delete" style="edgeStyle=orthogonalEdgeStyle;html=1;dashed=1;" parent="bxSMeSngFyrTGHN01Dfs-1" edge="1">
                    <mxGeometry x="-0.1783" y="-10" relative="1" as="geometry">
                        <mxPoint x="85" y="102" as="targetPoint"/>
                        <mxPoint x="396" y="206" as="sourcePoint"/>
                        <Array as="points">
                            <mxPoint x="85" y="293"/>
                        </Array>
                        <mxPoint as="offset"/>
                    </mxGeometry>
                </mxCell>
                <mxCell id="zw1c4lDCyKDmdPqllFDC-49" value="open" style="edgeStyle=orthogonalEdgeStyle;html=1;entryX=0;entryY=0.5;entryDx=0;entryDy=0;" parent="bxSMeSngFyrTGHN01Dfs-1" source="zw1c4lDCyKDmdPqllFDC-3" target="zw1c4lDCyKDmdPqllFDC-15" edge="1">
                    <mxGeometry relative="1" as="geometry">
                        <Array as="points">
                            <mxPoint x="194" y="94"/>
                            <mxPoint x="194" y="200"/>
                        </Array>
                    </mxGeometry>
                </mxCell>
                <mxCell id="zw1c4lDCyKDmdPqllFDC-3" value="development" style="rounded=0;whiteSpace=wrap;html=1;" parent="bxSMeSngFyrTGHN01Dfs-1" vertex="1">
                    <mxGeometry x="25" y="41" width="120" height="60" as="geometry"/>
                </mxCell>
                <mxCell id="zw1c4lDCyKDmdPqllFDC-7" value="development - workflows" style="swimlane;fontStyle=0;childLayout=stackLayout;horizontal=1;startSize=26;horizontalStack=0;resizeParent=1;resizeParentMax=0;resizeLast=0;collapsible=1;marginBottom=0;" parent="bxSMeSngFyrTGHN01Dfs-1" vertex="1">
                    <mxGeometry x="231" y="32" width="176" height="78" as="geometry"/>
                </mxCell>
                <mxCell id="zw1c4lDCyKDmdPqllFDC-8" value="- build" style="text;strokeColor=none;fillColor=none;align=left;verticalAlign=top;spacingLeft=4;spacingRight=4;overflow=hidden;rotatable=0;points=[[0,0.5],[1,0.5]];portConstraint=eastwest;" parent="zw1c4lDCyKDmdPqllFDC-7" vertex="1">
                    <mxGeometry y="26" width="176" height="26" as="geometry"/>
                </mxCell>
                <mxCell id="zw1c4lDCyKDmdPqllFDC-9" value="- test" style="text;strokeColor=none;fillColor=none;align=left;verticalAlign=top;spacingLeft=4;spacingRight=4;overflow=hidden;rotatable=0;points=[[0,0.5],[1,0.5]];portConstraint=eastwest;" parent="zw1c4lDCyKDmdPqllFDC-7" vertex="1">
                    <mxGeometry y="52" width="176" height="26" as="geometry"/>
                </mxCell>
                <mxCell id="zw1c4lDCyKDmdPqllFDC-33" value="approved" style="edgeStyle=none;html=1;entryX=0;entryY=0.5;entryDx=0;entryDy=0;" parent="bxSMeSngFyrTGHN01Dfs-1" source="zw1c4lDCyKDmdPqllFDC-15" target="zw1c4lDCyKDmdPqllFDC-0" edge="1">
                    <mxGeometry relative="1" as="geometry"/>
                </mxCell>
                <mxCell id="zw1c4lDCyKDmdPqllFDC-15" value="pull request" style="shape=hexagon;perimeter=hexagonPerimeter2;whiteSpace=wrap;html=1;fixedSize=1;" parent="bxSMeSngFyrTGHN01Dfs-1" vertex="1">
                    <mxGeometry x="242" y="172" width="118" height="56" as="geometry"/>
                </mxCell>
                <mxCell id="zw1c4lDCyKDmdPqllFDC-26" value="approved" style="edgeStyle=none;html=1;entryX=0.5;entryY=0;entryDx=0;entryDy=0;" parent="bxSMeSngFyrTGHN01Dfs-1" source="zw1c4lDCyKDmdPqllFDC-24" target="zw1c4lDCyKDmdPqllFDC-1" edge="1">
                    <mxGeometry relative="1" as="geometry"/>
                </mxCell>
                <mxCell id="zw1c4lDCyKDmdPqllFDC-24" value="pull request" style="shape=hexagon;perimeter=hexagonPerimeter2;whiteSpace=wrap;html=1;fixedSize=1;" parent="bxSMeSngFyrTGHN01Dfs-1" vertex="1">
                    <mxGeometry x="433" y="307" width="118" height="56" as="geometry"/>
                </mxCell>
                <mxCell id="zw1c4lDCyKDmdPqllFDC-40" value="staging - workflows" style="swimlane;fontStyle=0;childLayout=stackLayout;horizontal=1;startSize=26;horizontalStack=0;resizeParent=1;resizeParentMax=0;resizeLast=0;collapsible=1;marginBottom=0;" parent="bxSMeSngFyrTGHN01Dfs-1" vertex="1">
                    <mxGeometry x="627" y="108" width="140" height="170" as="geometry"/>
                </mxCell>
                <mxCell id="zw1c4lDCyKDmdPqllFDC-41" value="- build" style="text;strokeColor=none;fillColor=none;align=left;verticalAlign=top;spacingLeft=4;spacingRight=4;overflow=hidden;rotatable=0;points=[[0,0.5],[1,0.5]];portConstraint=eastwest;" parent="zw1c4lDCyKDmdPqllFDC-40" vertex="1">
                    <mxGeometry y="26" width="140" height="26" as="geometry"/>
                </mxCell>
                <mxCell id="zw1c4lDCyKDmdPqllFDC-42" value="- test" style="text;strokeColor=none;fillColor=none;align=left;verticalAlign=top;spacingLeft=4;spacingRight=4;overflow=hidden;rotatable=0;points=[[0,0.5],[1,0.5]];portConstraint=eastwest;" parent="zw1c4lDCyKDmdPqllFDC-40" vertex="1">
                    <mxGeometry y="52" width="140" height="26" as="geometry"/>
                </mxCell>
                <mxCell id="zw1c4lDCyKDmdPqllFDC-43" value="&#10;&#10;&#10;" style="text;strokeColor=none;fillColor=none;align=left;verticalAlign=top;spacingLeft=4;spacingRight=4;overflow=hidden;rotatable=0;points=[[0,0.5],[1,0.5]];portConstraint=eastwest;" parent="zw1c4lDCyKDmdPqllFDC-40" vertex="1">
                    <mxGeometry y="78" width="140" height="92" as="geometry"/>
                </mxCell>
                <mxCell id="zw1c4lDCyKDmdPqllFDC-44" value="- deploy : staging" style="text;strokeColor=none;fillColor=none;align=left;verticalAlign=top;spacingLeft=4;spacingRight=4;overflow=hidden;rotatable=0;points=[[0,0.5],[1,0.5]];portConstraint=eastwest;" parent="bxSMeSngFyrTGHN01Dfs-1" vertex="1">
                    <mxGeometry x="627" y="187" width="140" height="26" as="geometry"/>
                </mxCell>
                <mxCell id="zw1c4lDCyKDmdPqllFDC-45" value="- close pull request" style="text;strokeColor=none;fillColor=none;align=left;verticalAlign=top;spacingLeft=4;spacingRight=4;overflow=hidden;rotatable=0;points=[[0,0.5],[1,0.5]];portConstraint=eastwest;" parent="bxSMeSngFyrTGHN01Dfs-1" vertex="1">
                    <mxGeometry x="626" y="215" width="140" height="26" as="geometry"/>
                </mxCell>
                <mxCell id="zw1c4lDCyKDmdPqllFDC-50" value="production - workflows" style="swimlane;fontStyle=0;childLayout=stackLayout;horizontal=1;startSize=26;horizontalStack=0;resizeParent=1;resizeParentMax=0;resizeLast=0;collapsible=1;marginBottom=0;" parent="bxSMeSngFyrTGHN01Dfs-1" vertex="1">
                    <mxGeometry x="633" y="356" width="140" height="170" as="geometry"/>
                </mxCell>
                <mxCell id="zw1c4lDCyKDmdPqllFDC-51" value="- build" style="text;strokeColor=none;fillColor=none;align=left;verticalAlign=top;spacingLeft=4;spacingRight=4;overflow=hidden;rotatable=0;points=[[0,0.5],[1,0.5]];portConstraint=eastwest;" parent="zw1c4lDCyKDmdPqllFDC-50" vertex="1">
                    <mxGeometry y="26" width="140" height="26" as="geometry"/>
                </mxCell>
                <mxCell id="zw1c4lDCyKDmdPqllFDC-52" value="- test" style="text;strokeColor=none;fillColor=none;align=left;verticalAlign=top;spacingLeft=4;spacingRight=4;overflow=hidden;rotatable=0;points=[[0,0.5],[1,0.5]];portConstraint=eastwest;" parent="zw1c4lDCyKDmdPqllFDC-50" vertex="1">
                    <mxGeometry y="52" width="140" height="26" as="geometry"/>
                </mxCell>
                <mxCell id="zw1c4lDCyKDmdPqllFDC-53" value="&#10;&#10;&#10;" style="text;strokeColor=none;fillColor=none;align=left;verticalAlign=top;spacingLeft=4;spacingRight=4;overflow=hidden;rotatable=0;points=[[0,0.5],[1,0.5]];portConstraint=eastwest;" parent="zw1c4lDCyKDmdPqllFDC-50" vertex="1">
                    <mxGeometry y="78" width="140" height="92" as="geometry"/>
                </mxCell>
                <mxCell id="zw1c4lDCyKDmdPqllFDC-54" value="- deploy : production" style="text;strokeColor=none;fillColor=none;align=left;verticalAlign=top;spacingLeft=4;spacingRight=4;overflow=hidden;rotatable=0;points=[[0,0.5],[1,0.5]];portConstraint=eastwest;" parent="bxSMeSngFyrTGHN01Dfs-1" vertex="1">
                    <mxGeometry x="633" y="435" width="140" height="26" as="geometry"/>
                </mxCell>
                <mxCell id="zw1c4lDCyKDmdPqllFDC-55" value="- close pull request" style="text;strokeColor=none;fillColor=none;align=left;verticalAlign=top;spacingLeft=4;spacingRight=4;overflow=hidden;rotatable=0;points=[[0,0.5],[1,0.5]];portConstraint=eastwest;" parent="bxSMeSngFyrTGHN01Dfs-1" vertex="1">
                    <mxGeometry x="632" y="463" width="140" height="26" as="geometry"/>
                </mxCell>
            </root>
        </mxGraphModel>
    </diagram>
    <diagram id="-ZthCaVXYlahbn5soDCK" name="Requests">
        <mxGraphModel dx="2014" dy="782" grid="0" gridSize="10" guides="1" tooltips="1" connect="1" arrows="1" fold="1" page="1" pageScale="1" pageWidth="1169" pageHeight="827" math="0" shadow="0">
            <root>
                <mxCell id="KVS447jvqALFG1HtmWmH-0"/>
                <mxCell id="KVS447jvqALFG1HtmWmH-1" parent="KVS447jvqALFG1HtmWmH-0"/>
                <mxCell id="bwTOP4i2WmxUYdhB9aq9-13" value="" style="rounded=0;whiteSpace=wrap;html=1;" vertex="1" parent="KVS447jvqALFG1HtmWmH-1">
                    <mxGeometry x="281" y="31" width="876" height="488" as="geometry"/>
                </mxCell>
                <mxCell id="bwTOP4i2WmxUYdhB9aq9-11" value="" style="rounded=0;whiteSpace=wrap;html=1;" vertex="1" parent="KVS447jvqALFG1HtmWmH-1">
                    <mxGeometry x="338" y="70" width="185" height="410" as="geometry"/>
                </mxCell>
                <mxCell id="bwTOP4i2WmxUYdhB9aq9-1" value="Search" style="ellipse;whiteSpace=wrap;html=1;aspect=fixed;" vertex="1" parent="KVS447jvqALFG1HtmWmH-1">
                    <mxGeometry x="382" y="311" width="100" height="100" as="geometry"/>
                </mxCell>
                <mxCell id="bwTOP4i2WmxUYdhB9aq9-18" style="edgeStyle=orthogonalEdgeStyle;html=1;entryX=0.5;entryY=1;entryDx=0;entryDy=0;" edge="1" parent="KVS447jvqALFG1HtmWmH-1" source="bwTOP4i2WmxUYdhB9aq9-3" target="bwTOP4i2WmxUYdhB9aq9-6">
                    <mxGeometry relative="1" as="geometry"/>
                </mxCell>
                <mxCell id="bwTOP4i2WmxUYdhB9aq9-19" style="edgeStyle=orthogonalEdgeStyle;html=1;entryX=0.5;entryY=0;entryDx=0;entryDy=0;" edge="1" parent="KVS447jvqALFG1HtmWmH-1" source="bwTOP4i2WmxUYdhB9aq9-3" target="bwTOP4i2WmxUYdhB9aq9-5">
                    <mxGeometry relative="1" as="geometry"/>
                </mxCell>
                <mxCell id="bwTOP4i2WmxUYdhB9aq9-3" value="Front-End" style="rounded=0;whiteSpace=wrap;html=1;" vertex="1" parent="KVS447jvqALFG1HtmWmH-1">
                    <mxGeometry x="21" y="210" width="120" height="121" as="geometry"/>
                </mxCell>
                <mxCell id="bwTOP4i2WmxUYdhB9aq9-4" value="Operation" style="ellipse;whiteSpace=wrap;html=1;aspect=fixed;" vertex="1" parent="KVS447jvqALFG1HtmWmH-1">
                    <mxGeometry x="382" y="129" width="100" height="100" as="geometry"/>
                </mxCell>
                <mxCell id="bwTOP4i2WmxUYdhB9aq9-20" style="edgeStyle=orthogonalEdgeStyle;html=1;entryX=0.57;entryY=0.99;entryDx=0;entryDy=0;entryPerimeter=0;" edge="1" parent="KVS447jvqALFG1HtmWmH-1" source="bwTOP4i2WmxUYdhB9aq9-5" target="bwTOP4i2WmxUYdhB9aq9-1">
                    <mxGeometry relative="1" as="geometry"/>
                </mxCell>
                <mxCell id="bwTOP4i2WmxUYdhB9aq9-5" value="Filter" style="rounded=1;whiteSpace=wrap;html=1;" vertex="1" parent="KVS447jvqALFG1HtmWmH-1">
                    <mxGeometry x="156.5" y="411" width="97" height="60" as="geometry"/>
                </mxCell>
                <mxCell id="bwTOP4i2WmxUYdhB9aq9-21" style="edgeStyle=orthogonalEdgeStyle;html=1;entryX=0.5;entryY=0;entryDx=0;entryDy=0;" edge="1" parent="KVS447jvqALFG1HtmWmH-1" source="bwTOP4i2WmxUYdhB9aq9-6" target="bwTOP4i2WmxUYdhB9aq9-4">
                    <mxGeometry relative="1" as="geometry"/>
                </mxCell>
                <mxCell id="bwTOP4i2WmxUYdhB9aq9-6" value="Argument" style="rounded=1;whiteSpace=wrap;html=1;" vertex="1" parent="KVS447jvqALFG1HtmWmH-1">
                    <mxGeometry x="155" y="67" width="100" height="60" as="geometry"/>
                </mxCell>
                <mxCell id="bwTOP4i2WmxUYdhB9aq9-9" value="CosmosDB" style="shape=cylinder3;whiteSpace=wrap;html=1;boundedLbl=1;backgroundOutline=1;size=15;" vertex="1" parent="KVS447jvqALFG1HtmWmH-1">
                    <mxGeometry x="1030" y="217" width="93" height="94" as="geometry"/>
                </mxCell>
                <mxCell id="bwTOP4i2WmxUYdhB9aq9-10" value="Vault" style="shape=cube;whiteSpace=wrap;html=1;boundedLbl=1;backgroundOutline=1;darkOpacity=0.05;darkOpacity2=0.1;" vertex="1" parent="KVS447jvqALFG1HtmWmH-1">
                    <mxGeometry x="1022" y="73" width="96" height="71" as="geometry"/>
                </mxCell>
                <mxCell id="bwTOP4i2WmxUYdhB9aq9-12" value="Function" style="text;html=1;strokeColor=none;fillColor=none;align=center;verticalAlign=middle;whiteSpace=wrap;rounded=0;" vertex="1" parent="KVS447jvqALFG1HtmWmH-1">
                    <mxGeometry x="331" y="45" width="60" height="30" as="geometry"/>
                </mxCell>
                <mxCell id="bwTOP4i2WmxUYdhB9aq9-14" value="Azure" style="text;html=1;strokeColor=none;fillColor=none;align=center;verticalAlign=middle;whiteSpace=wrap;rounded=0;" vertex="1" parent="KVS447jvqALFG1HtmWmH-1">
                    <mxGeometry x="1097" y="5" width="60" height="30" as="geometry"/>
                </mxCell>
                <mxCell id="bwTOP4i2WmxUYdhB9aq9-15" value="Blazor App" style="text;html=1;strokeColor=none;fillColor=none;align=center;verticalAlign=middle;whiteSpace=wrap;rounded=0;" vertex="1" parent="KVS447jvqALFG1HtmWmH-1">
                    <mxGeometry x="21" y="183" width="90" height="30" as="geometry"/>
                </mxCell>
                <mxCell id="bwTOP4i2WmxUYdhB9aq9-22" value="Back-End" style="text;html=1;strokeColor=none;fillColor=none;align=center;verticalAlign=middle;whiteSpace=wrap;rounded=0;" vertex="1" parent="KVS447jvqALFG1HtmWmH-1">
                    <mxGeometry x="686" y="489" width="60" height="30" as="geometry"/>
                </mxCell>
                <mxCell id="bwTOP4i2WmxUYdhB9aq9-30" style="edgeStyle=orthogonalEdgeStyle;html=1;entryX=0;entryY=0.5;entryDx=0;entryDy=0;entryPerimeter=0;" edge="1" parent="KVS447jvqALFG1HtmWmH-1" source="bwTOP4i2WmxUYdhB9aq9-23" target="bwTOP4i2WmxUYdhB9aq9-9">
                    <mxGeometry relative="1" as="geometry"/>
                </mxCell>
                <mxCell id="bwTOP4i2WmxUYdhB9aq9-23" value="Business" style="shape=hexagon;perimeter=hexagonPerimeter2;whiteSpace=wrap;html=1;fixedSize=1;" vertex="1" parent="KVS447jvqALFG1HtmWmH-1">
                    <mxGeometry x="629" y="281" width="120" height="80" as="geometry"/>
                </mxCell>
                <mxCell id="bwTOP4i2WmxUYdhB9aq9-24" value="Services" style="shape=hexagon;perimeter=hexagonPerimeter2;whiteSpace=wrap;html=1;fixedSize=1;" vertex="1" parent="KVS447jvqALFG1HtmWmH-1">
                    <mxGeometry x="629" y="414" width="120" height="80" as="geometry"/>
                </mxCell>
                <mxCell id="bwTOP4i2WmxUYdhB9aq9-29" style="edgeStyle=orthogonalEdgeStyle;html=1;entryX=0;entryY=0.5;entryDx=0;entryDy=0;entryPerimeter=0;" edge="1" parent="KVS447jvqALFG1HtmWmH-1" source="bwTOP4i2WmxUYdhB9aq9-25" target="bwTOP4i2WmxUYdhB9aq9-9">
                    <mxGeometry relative="1" as="geometry"/>
                </mxCell>
                <mxCell id="bwTOP4i2WmxUYdhB9aq9-25" value="Configure" style="rounded=1;whiteSpace=wrap;html=1;" vertex="1" parent="KVS447jvqALFG1HtmWmH-1">
                    <mxGeometry x="626" y="70" width="120" height="60" as="geometry"/>
                </mxCell>
                <mxCell id="bwTOP4i2WmxUYdhB9aq9-27" style="edgeStyle=orthogonalEdgeStyle;html=1;" edge="1" parent="KVS447jvqALFG1HtmWmH-1" source="bwTOP4i2WmxUYdhB9aq9-26" target="bwTOP4i2WmxUYdhB9aq9-24">
                    <mxGeometry relative="1" as="geometry"/>
                </mxCell>
                <mxCell id="bwTOP4i2WmxUYdhB9aq9-28" style="edgeStyle=orthogonalEdgeStyle;html=1;" edge="1" parent="KVS447jvqALFG1HtmWmH-1" source="bwTOP4i2WmxUYdhB9aq9-26" target="bwTOP4i2WmxUYdhB9aq9-23">
                    <mxGeometry relative="1" as="geometry"/>
                </mxCell>
                <mxCell id="bwTOP4i2WmxUYdhB9aq9-26" value="Tests" style="rounded=1;whiteSpace=wrap;html=1;" vertex="1" parent="KVS447jvqALFG1HtmWmH-1">
                    <mxGeometry x="793" y="363" width="120" height="60" as="geometry"/>
                </mxCell>
            </root>
        </mxGraphModel>
    </diagram>
</mxfile>